<?xml version="1.0" encoding="UTF-8" standalone="no"?><!DOCTYPE svg PUBLIC "-//W3C//DTD SVG 1.1//EN" "http://www.w3.org/Graphics/SVG/1.1/DTD/svg11.dtd"><svg width="1600px" height="660px" version="1.1" xmlns="http://www.w3.org/2000/svg" xmlns:xlink="http://www.w3.org/1999/xlink" xml:space="preserve" xmlns:serif="http://www.serif.com/" style="fill-rule:evenodd;clip-rule:evenodd;stroke-linejoin:round;stroke-miterlimit:2;"><g transform="matrix(1,0,0,1,0.9778,0)"><g transform="matrix(1.12345,0,0,1.12345,-86.8762,-55.0855)"><path d="M373.826,57.342C532.256,57.342 660.88,185.967 660.88,344.396C660.88,502.826 532.256,631.451 373.826,631.451C215.397,631.451 86.772,502.826 86.772,344.396C86.772,185.967 215.397,57.342 373.826,57.342ZM373.826,93.595C235.405,93.595 123.025,205.975 123.025,344.396C123.025,482.818 235.405,595.198 373.826,595.198C512.247,595.198 624.627,482.818 624.627,344.396C624.627,205.975 512.247,93.595 373.826,93.595Z" style="fill:white;"/></g><g transform="matrix(-2.69641e-05,585.742,585.742,2.69641e-05,303.892,269.577)"><path d="M-0.071,0.09C-0.086,0.111 -0.116,0.11 -0.132,0.087C-0.132,0.087 -0.149,0.065 -0.149,0.028C-0.149,-0.067 -0.089,-0.117 -0.014,-0.117C0.03,-0.117 0.058,-0.092 0.103,-0.092C0.144,-0.092 0.158,-0.11 0.202,-0.115C0.225,-0.117 0.269,-0.113 0.287,-0.102C0.318,-0.084 0.32,-0.057 0.302,-0.031C0.281,-0.002 0.239,-0.04 0.209,-0.04C0.169,-0.041 0.157,-0.024 0.157,-0.024C0.137,-0.004 0.15,0.018 0.14,0.049C0.136,0.06 0.12,0.073 0.106,0.073C0.086,0.073 0.074,0.059 0.069,0.046C0.059,0.02 0.065,-0.005 0.052,-0.019C0.038,-0.034 0.02,-0.041 -0.006,-0.041C-0.059,-0.041 -0.092,-0.006 -0.073,0.038C-0.065,0.055 -0.057,0.071 -0.071,0.09Z" style="fill:white;fill-rule:nonzero;"/></g><g transform="matrix(-2.69641e-05,585.74,585.74,2.69641e-05,444.136,271.507)"><path d="M0.156,0.112C0.147,0.101 0.122,0.083 0.104,0.083C0.081,0.082 0.06,0.1 0.052,0.112C0.038,0.133 0.026,0.154 -0.008,0.157C-0.025,0.158 -0.037,0.148 -0.044,0.128C-0.053,0.102 -0.019,0.073 0.022,0.045C0.045,0.03 0.058,0.023 0.059,0.001C0.06,-0.024 0.042,-0.032 0.022,-0.043C-0.021,-0.067 -0.045,-0.086 -0.045,-0.113C-0.046,-0.134 -0.026,-0.15 -0.01,-0.155C0.015,-0.162 0.039,-0.135 0.053,-0.114C0.061,-0.102 0.081,-0.081 0.104,-0.081C0.128,-0.081 0.148,-0.098 0.156,-0.109C0.17,-0.13 0.188,-0.154 0.222,-0.154C0.24,-0.154 0.259,-0.135 0.259,-0.116C0.259,-0.096 0.228,-0.072 0.186,-0.043C0.167,-0.03 0.15,-0.017 0.149,0.001C0.148,0.026 0.167,0.033 0.186,0.045C0.235,0.076 0.263,0.104 0.256,0.126C0.251,0.143 0.237,0.156 0.222,0.159C0.193,0.164 0.173,0.13 0.156,0.112Z" style="fill:white;fill-rule:nonzero;"/></g><g transform="matrix(-2.69641e-05,585.741,585.741,2.69641e-05,161.904,269.577)"><path d="M0.214,-0.036C0.177,-0.049 0.15,-0.017 0.15,-0.017C0.132,0.004 0.142,0.024 0.133,0.052C0.129,0.063 0.116,0.073 0.104,0.073C0.087,0.072 0.077,0.06 0.072,0.048C0.063,0.025 0.065,0.007 0.055,-0.011C0.045,-0.027 0.035,-0.031 0.011,-0.035C-0.034,-0.042 -0.067,0.002 -0.049,0.049C-0.042,0.068 -0.05,0.086 -0.066,0.095C-0.088,0.107 -0.121,0.081 -0.125,0.029C-0.133,-0.069 -0.065,-0.108 0.003,-0.108C0.043,-0.107 0.06,-0.084 0.102,-0.083C0.138,-0.083 0.171,-0.103 0.211,-0.108C0.278,-0.112 0.318,-0.05 0.315,0.017C0.314,0.061 0.306,0.072 0.296,0.084C0.278,0.106 0.229,0.085 0.239,0.049C0.251,0.006 0.248,-0.024 0.214,-0.036Z" style="fill:white;fill-rule:nonzero;"/></g><g transform="matrix(-6.04966e-22,-94.9859,-94.9859,6.04966e-22,554.561,367.158)"><path d="M0.423,-0.287C0.247,-0.287 0.105,-0.185 0.105,-0.017C0.105,0.15 0.247,0.287 0.423,0.287C0.598,0.287 0.693,0.15 0.693,-0.017C0.693,-0.185 0.598,-0.287 0.423,-0.287Z" style="fill:white;fill-rule:nonzero;"/></g><g transform="matrix(6.05487,0,0,6.05487,-4784.6,-49.8174)"><g transform="matrix(80,0,0,80,906.156,90.5937)"><path d="M0.464,-0.035C0.464,-0.049 0.458,-0.061 0.447,-0.073C0.435,-0.083 0.422,-0.089 0.407,-0.089C0.402,-0.089 0.397,-0.088 0.392,-0.088C0.387,-0.087 0.382,-0.086 0.377,-0.085L0.362,-0.081C0.356,-0.08 0.351,-0.079 0.346,-0.078C0.332,-0.074 0.318,-0.072 0.304,-0.072C0.289,-0.071 0.275,-0.071 0.261,-0.071C0.233,-0.071 0.211,-0.075 0.195,-0.084C0.179,-0.092 0.167,-0.104 0.16,-0.119C0.152,-0.133 0.148,-0.149 0.146,-0.169C0.144,-0.187 0.144,-0.207 0.144,-0.227C0.144,-0.279 0.145,-0.331 0.149,-0.383C0.152,-0.435 0.156,-0.487 0.161,-0.539C0.162,-0.555 0.164,-0.572 0.166,-0.589C0.168,-0.605 0.169,-0.622 0.169,-0.639C0.169,-0.653 0.165,-0.665 0.157,-0.676C0.149,-0.686 0.138,-0.692 0.124,-0.692C0.118,-0.692 0.111,-0.691 0.104,-0.691C0.097,-0.69 0.091,-0.689 0.085,-0.687C0.079,-0.685 0.074,-0.681 0.07,-0.677C0.066,-0.673 0.064,-0.667 0.064,-0.66C0.064,-0.648 0.065,-0.637 0.068,-0.626C0.07,-0.614 0.071,-0.603 0.071,-0.592C0.071,-0.539 0.069,-0.486 0.066,-0.434C0.062,-0.381 0.06,-0.328 0.06,-0.276C0.06,-0.23 0.062,-0.191 0.066,-0.157C0.069,-0.123 0.078,-0.095 0.094,-0.073C0.109,-0.051 0.132,-0.034 0.162,-0.023C0.192,-0.011 0.234,-0.006 0.288,-0.006C0.314,-0.006 0.337,-0.006 0.359,-0.007C0.38,-0.007 0.398,-0.009 0.414,-0.011C0.43,-0.013 0.442,-0.015 0.451,-0.019C0.459,-0.023 0.464,-0.028 0.464,-0.035Z" style="fill:white;fill-rule:nonzero;"/></g><g transform="matrix(80,0,0,80,945.676,90.5937)"><path d="M0.584,-0.066C0.584,-0.074 0.583,-0.085 0.582,-0.101C0.58,-0.117 0.579,-0.135 0.577,-0.156C0.575,-0.176 0.572,-0.199 0.57,-0.224L0.56,-0.299L0.55,-0.371L0.538,-0.445L0.523,-0.517C0.517,-0.541 0.511,-0.564 0.504,-0.587C0.5,-0.599 0.495,-0.611 0.489,-0.623C0.483,-0.635 0.475,-0.647 0.467,-0.657C0.458,-0.667 0.448,-0.676 0.436,-0.683C0.424,-0.689 0.412,-0.693 0.398,-0.693C0.376,-0.693 0.354,-0.684 0.334,-0.667C0.313,-0.65 0.293,-0.628 0.274,-0.601C0.254,-0.573 0.236,-0.542 0.22,-0.508C0.202,-0.474 0.187,-0.44 0.173,-0.407C0.159,-0.373 0.146,-0.341 0.136,-0.311C0.126,-0.28 0.118,-0.255 0.113,-0.236C0.101,-0.239 0.092,-0.241 0.086,-0.243C0.078,-0.245 0.072,-0.246 0.066,-0.246C0.058,-0.246 0.052,-0.245 0.048,-0.243C0.043,-0.241 0.039,-0.238 0.037,-0.235C0.034,-0.229 0.032,-0.225 0.031,-0.222C0.029,-0.218 0.027,-0.213 0.025,-0.207C0.027,-0.199 0.03,-0.192 0.034,-0.187C0.036,-0.182 0.04,-0.178 0.045,-0.176C0.049,-0.173 0.056,-0.171 0.064,-0.17C0.071,-0.168 0.081,-0.167 0.093,-0.167C0.089,-0.15 0.085,-0.135 0.082,-0.123L0.074,-0.084C0.07,-0.07 0.068,-0.057 0.066,-0.045C0.064,-0.032 0.064,-0.02 0.064,-0.009C0.064,-0.003 0.066,-0 0.072,0.004C0.076,0.007 0.082,0.01 0.089,0.013C0.095,0.015 0.102,0.017 0.11,0.019C0.117,0.019 0.123,0.02 0.127,0.02C0.136,0.02 0.145,0.015 0.153,0.007C0.161,-0.001 0.165,-0.009 0.165,-0.017C0.165,-0.039 0.166,-0.064 0.168,-0.09C0.17,-0.116 0.173,-0.142 0.178,-0.168L0.258,-0.174C0.283,-0.176 0.308,-0.178 0.333,-0.182C0.357,-0.185 0.382,-0.189 0.408,-0.194C0.432,-0.198 0.459,-0.204 0.489,-0.211C0.489,-0.196 0.49,-0.179 0.492,-0.161C0.492,-0.143 0.493,-0.13 0.493,-0.124C0.493,-0.117 0.492,-0.111 0.491,-0.105C0.489,-0.099 0.488,-0.092 0.486,-0.086C0.484,-0.08 0.482,-0.075 0.481,-0.069C0.479,-0.063 0.479,-0.058 0.479,-0.052C0.479,-0.041 0.485,-0.031 0.498,-0.023C0.51,-0.015 0.522,-0.011 0.535,-0.011C0.552,-0.011 0.564,-0.016 0.572,-0.027C0.58,-0.038 0.584,-0.051 0.584,-0.066ZM0.481,-0.269C0.433,-0.257 0.386,-0.248 0.34,-0.242C0.294,-0.235 0.246,-0.231 0.194,-0.231C0.211,-0.293 0.232,-0.354 0.257,-0.413C0.281,-0.472 0.311,-0.525 0.347,-0.573C0.357,-0.587 0.367,-0.598 0.377,-0.606C0.387,-0.614 0.395,-0.618 0.401,-0.618C0.402,-0.618 0.404,-0.617 0.408,-0.615C0.41,-0.613 0.412,-0.611 0.414,-0.608C0.42,-0.595 0.425,-0.581 0.429,-0.565L0.44,-0.52C0.443,-0.505 0.446,-0.491 0.448,-0.477C0.45,-0.463 0.453,-0.449 0.456,-0.437C0.46,-0.412 0.464,-0.385 0.468,-0.357C0.472,-0.328 0.476,-0.299 0.481,-0.269Z" style="fill:white;fill-rule:nonzero;"/></g><g transform="matrix(80,0,0,80,996.396,90.5937)"><path d="M0.586,-0.196C0.586,-0.23 0.571,-0.262 0.543,-0.292C0.514,-0.321 0.47,-0.342 0.411,-0.356C0.439,-0.368 0.463,-0.381 0.482,-0.396C0.5,-0.41 0.514,-0.426 0.525,-0.442C0.535,-0.458 0.543,-0.474 0.547,-0.491C0.551,-0.507 0.553,-0.524 0.553,-0.54C0.553,-0.563 0.549,-0.585 0.542,-0.605C0.534,-0.625 0.523,-0.642 0.508,-0.657C0.493,-0.672 0.474,-0.684 0.452,-0.693C0.429,-0.701 0.403,-0.705 0.373,-0.705C0.344,-0.705 0.314,-0.699 0.283,-0.687C0.251,-0.675 0.22,-0.66 0.188,-0.642C0.186,-0.661 0.184,-0.676 0.18,-0.687C0.175,-0.697 0.167,-0.703 0.156,-0.703C0.146,-0.703 0.137,-0.7 0.128,-0.696C0.119,-0.691 0.112,-0.685 0.108,-0.678L0.112,-0.639L0.111,-0.584C0.101,-0.575 0.097,-0.568 0.097,-0.564C0.097,-0.562 0.098,-0.559 0.1,-0.557C0.102,-0.554 0.105,-0.551 0.111,-0.547L0.111,-0.464C0.111,-0.444 0.11,-0.423 0.11,-0.403L0.11,-0.345C0.11,-0.309 0.109,-0.273 0.107,-0.237C0.105,-0.201 0.101,-0.164 0.097,-0.124C0.08,-0.122 0.068,-0.118 0.061,-0.112C0.053,-0.105 0.05,-0.098 0.05,-0.09C0.05,-0.08 0.054,-0.073 0.062,-0.069C0.069,-0.065 0.078,-0.061 0.089,-0.057L0.089,-0.038C0.089,-0.035 0.09,-0.032 0.092,-0.03C0.094,-0.026 0.098,-0.023 0.104,-0.021C0.109,-0.018 0.114,-0.017 0.12,-0.017C0.125,-0.017 0.131,-0.019 0.138,-0.023C0.144,-0.026 0.149,-0.032 0.153,-0.042C0.162,-0.039 0.174,-0.037 0.188,-0.035C0.202,-0.032 0.216,-0.03 0.232,-0.028C0.247,-0.026 0.262,-0.024 0.278,-0.023C0.292,-0.021 0.305,-0.021 0.317,-0.021C0.338,-0.021 0.357,-0.021 0.375,-0.023C0.392,-0.023 0.408,-0.025 0.424,-0.028C0.439,-0.03 0.454,-0.034 0.468,-0.04C0.482,-0.045 0.497,-0.052 0.513,-0.062C0.535,-0.074 0.552,-0.091 0.566,-0.113C0.579,-0.134 0.586,-0.162 0.586,-0.196ZM0.479,-0.542C0.479,-0.488 0.454,-0.449 0.406,-0.424C0.356,-0.398 0.282,-0.382 0.184,-0.374L0.186,-0.424L0.186,-0.512C0.186,-0.526 0.187,-0.542 0.187,-0.559C0.199,-0.567 0.212,-0.577 0.228,-0.587C0.243,-0.597 0.259,-0.606 0.276,-0.615C0.292,-0.623 0.309,-0.629 0.326,-0.635C0.342,-0.641 0.358,-0.644 0.374,-0.644C0.39,-0.644 0.405,-0.641 0.419,-0.635C0.432,-0.629 0.443,-0.621 0.452,-0.611C0.46,-0.601 0.467,-0.591 0.472,-0.579C0.476,-0.567 0.479,-0.554 0.479,-0.542ZM0.509,-0.185C0.509,-0.155 0.494,-0.131 0.464,-0.112C0.434,-0.092 0.386,-0.083 0.318,-0.083C0.302,-0.083 0.286,-0.083 0.272,-0.085C0.258,-0.087 0.244,-0.089 0.232,-0.092C0.22,-0.093 0.21,-0.095 0.201,-0.097L0.171,-0.103C0.175,-0.14 0.177,-0.175 0.178,-0.208C0.178,-0.24 0.178,-0.275 0.18,-0.313L0.234,-0.313C0.244,-0.312 0.255,-0.312 0.265,-0.312L0.291,-0.312C0.313,-0.312 0.336,-0.31 0.362,-0.307C0.387,-0.303 0.41,-0.297 0.432,-0.288C0.454,-0.278 0.472,-0.265 0.487,-0.249C0.501,-0.232 0.509,-0.211 0.509,-0.185Z" style="fill:white;fill-rule:nonzero;"/></g></g></g></svg>